# xmcd
#
# Track frame offsets:
#	150
#	17964
#	30264
#	86441
#	100842
#	115691
#	137515
#	150974
#	164851
#	179550
#	193724
#	220050
#	234975
#	248550
#	262349
#	276561
#	290361
#
# Disc length: 4035
#
# Revision: 1
# Processed by: cddbd v1.5.1PL0 Copyright (c) Steve Scherf et al.
# Submitted via: CDex 1.51
# Normalized: r0:DSETVAR1,TDELIM( - )
#
DISCID=ec0fc111
DTITLE=Various Artist - Hot and Cool Jazz Vol.2 CD1
DYEAR=1900
DGENRE=Jazz
TTITLE0=Louis Armstrong - Ain't Misbehavin
TTITLE1=Count Basie - Swingin The Blues
TTITLE2=Cannonball Adderley - This Here
TTITLE3=Duke Ellington - Cotton Tail
TTITLE4=Billie Holidy - Lover Man
TTITLE5=Oscar Peterson - Night Train
TTITLE6=Lionel Hampton - Sweethearts On Parade
TTITLE7=Charlie Parker - Night In Tunisia
TTITLE8=George Shearing - September In The Rain
TTITLE9=Jones-Smith Inc. - Lady Be Good
TTITLE10=Stan Getz - Desafinado
TTITLE11=George Wettling - A Good Man Is Hard To Find
TTITLE12=Louis Armstrong - Potato Head Blues
TTITLE13=Bud Powell - Bouncing With Bud
TTITLE14=Benny Goodman - King Porter Stomp
TTITLE15=Coleman Nawkins - Body And Soul
TTITLE16=John Kirby - St. Louis Blues
EXTD=
EXTT0=
EXTT1=
EXTT2=
EXTT3=
EXTT4=
EXTT5=
EXTT6=
EXTT7=
EXTT8=
EXTT9=
EXTT10=
EXTT11=
EXTT12=
EXTT13=
EXTT14=
EXTT15=
EXTT16=
PLAYORDER=
